<?xml version="1.0" encoding="UTF-8"?>
<!DOCTYPE svg PUBLIC "-//W3C//DTD SVG 1.1//EN" "http://www.w3.org/Graphics/SVG/1.1/DTD/svg11.dtd">
<svg xmlns="http://www.w3.org/2000/svg" version="1.1" width="500px" height="500px" style="shape-rendering:geometricPrecision; text-rendering:geometricPrecision; image-rendering:optimizeQuality; fill-rule:evenodd; clip-rule:evenodd" xmlns:xlink="http://www.w3.org/1999/xlink">
<g><path style="opacity:0.145" fill="#bbbbbb" d="M 365.5,159.5 C 365.5,159.833 365.5,160.167 365.5,160.5C 352.167,160.5 338.833,160.5 325.5,160.5C 325.62,159.414 326.287,158.747 327.5,158.5C 340.359,159.462 353.025,159.796 365.5,159.5 Z"/></g>
<g><path style="opacity:0.998" fill="#020202" d="M 139.5,160.5 C 152.833,160.5 166.167,160.5 179.5,160.5C 179.17,180.674 179.503,200.674 180.5,220.5C 193.167,220.5 205.833,220.5 218.5,220.5C 219.497,200.674 219.83,180.674 219.5,160.5C 232.833,160.5 246.167,160.5 259.5,160.5C 259.333,185.836 259.5,211.169 260,236.5C 260.717,235.956 261.217,235.289 261.5,234.5C 263.262,233.738 264.262,232.404 264.5,230.5C 266.5,227.833 268.833,225.5 271.5,223.5C 272.5,223.167 273.167,222.5 273.5,221.5C 276.903,219.1 279.57,216.1 281.5,212.5C 285.227,208.767 289.227,205.434 293.5,202.5C 294.338,202.842 294.672,203.508 294.5,204.5C 294.833,205.5 295.5,206.167 296.5,206.5C 296.833,207.5 297.5,208.167 298.5,208.5C 299.757,211.427 301.757,213.761 304.5,215.5C 305.419,218.089 307.086,220.089 309.5,221.5C 311.167,222.5 312.5,223.833 313.5,225.5C 314.08,227.749 315.413,229.415 317.5,230.5C 317.833,231.5 318.5,232.167 319.5,232.5C 320.5,232.833 321.167,233.5 321.5,234.5C 322.031,236.544 323.198,238.211 325,239.5C 325.49,238.207 325.657,236.873 325.5,235.5C 324.181,210.373 324.181,185.373 325.5,160.5C 338.833,160.5 352.167,160.5 365.5,160.5C 365.828,208.905 365.495,257.239 364.5,305.5C 363.5,305.833 362.833,306.5 362.5,307.5C 362.167,307.5 361.833,307.5 361.5,307.5C 360.5,307.833 359.833,308.5 359.5,309.5C 357.025,312.241 354.025,314.241 350.5,315.5C 349.5,315.833 348.833,316.5 348.5,317.5C 347.71,318.401 346.71,319.068 345.5,319.5C 344.167,319.167 342.833,318.833 341.5,318.5C 340.5,318.167 339.833,317.5 339.5,316.5C 338.92,314.251 337.587,312.585 335.5,311.5C 335.167,310.5 334.5,309.833 333.5,309.5C 331.833,308.5 330.5,307.167 329.5,305.5C 329.167,303.167 327.833,301.833 325.5,301.5C 325.5,301.167 325.5,300.833 325.5,300.5C 325.167,299.5 324.5,298.833 323.5,298.5C 323.144,296.81 322.144,295.81 320.5,295.5C 320.573,293.973 319.906,292.973 318.5,292.5C 318.167,291.5 317.5,290.833 316.5,290.5C 316.167,289.5 315.5,288.833 314.5,288.5C 314.167,287.5 313.5,286.833 312.5,286.5C 311.167,283.167 308.833,280.833 305.5,279.5C 303.529,277.192 301.529,274.858 299.5,272.5C 298.581,269.911 296.914,267.911 294.5,266.5C 294.167,265.5 293.5,264.833 292.5,264.5C 290.668,263.282 289.668,263.949 289.5,266.5C 289.167,267.5 288.5,268.167 287.5,268.5C 285.086,269.911 283.419,271.911 282.5,274.5C 280.547,278.12 277.881,281.12 274.5,283.5C 273.5,283.833 272.833,284.5 272.5,285.5C 270.413,286.585 269.08,288.251 268.5,290.5C 268.167,291.5 267.5,292.167 266.5,292.5C 265.5,292.833 264.833,293.5 264.5,294.5C 262.738,295.262 261.738,296.596 261.5,298.5C 261.167,299.5 260.5,300.167 259.5,300.5C 258.5,300.833 257.833,301.5 257.5,302.5C 255.738,303.262 254.738,304.596 254.5,306.5C 254.167,307.5 253.5,308.167 252.5,308.5C 251.167,309.167 250.167,310.167 249.5,311.5C 247.738,312.262 246.738,313.596 246.5,315.5C 245.833,316.833 244.833,317.833 243.5,318.5C 241.086,319.911 239.419,321.911 238.5,324.5C 238.167,325.5 237.5,326.167 236.5,326.5C 234.738,327.262 233.738,328.596 233.5,330.5C 232.5,332.167 231.167,333.5 229.5,334.5C 228.5,334.833 227.833,335.5 227.5,336.5C 226.094,336.973 225.427,337.973 225.5,339.5C 225.167,340.5 224.5,341.167 223.5,341.5C 222.5,341.833 221.833,342.5 221.5,343.5C 219.836,316.349 218.836,289.015 218.5,261.5C 205.5,261.5 192.5,261.5 179.5,261.5C 179.5,284.5 179.5,307.5 179.5,330.5C 179.5,331.5 179.5,332.5 179.5,333.5C 177.973,333.573 176.973,332.906 176.5,331.5C 176.027,330.094 175.027,329.427 173.5,329.5C 172.738,327.738 171.404,326.738 169.5,326.5C 168.738,324.738 167.404,323.738 165.5,323.5C 165.027,322.094 164.027,321.427 162.5,321.5C 161.833,321.5 161.5,321.167 161.5,320.5C 161.027,319.094 160.027,318.427 158.5,318.5C 157.833,318.5 157.5,318.167 157.5,317.5C 157.027,316.094 156.027,315.427 154.5,315.5C 153.738,313.738 152.404,312.738 150.5,312.5C 149.508,312.672 148.842,312.338 148.5,311.5C 148.167,310.5 147.5,309.833 146.5,309.5C 146.027,308.094 145.027,307.427 143.5,307.5C 143.027,306.094 142.027,305.427 140.5,305.5C 139.505,257.239 139.172,208.905 139.5,160.5 Z"/></g>
<g><path style="opacity:0.245" fill="#fafafa" d="M 365.5,159.5 C 366.167,183.664 366.5,207.998 366.5,232.5C 366.5,257.176 365.833,281.509 364.5,305.5C 365.495,257.239 365.828,208.905 365.5,160.5C 365.5,160.167 365.5,159.833 365.5,159.5 Z"/></g>
<g><path style="opacity:0.43" fill="#a5a5a5" d="M 261.5,234.5 C 261.217,235.289 260.717,235.956 260,236.5C 259.5,211.169 259.333,185.836 259.5,160.5C 246.167,160.5 232.833,160.5 219.5,160.5C 219.83,180.674 219.497,200.674 218.5,220.5C 218.5,220.167 218.5,219.833 218.5,219.5C 218.333,199.497 218.5,179.497 219,159.5C 232.408,159.661 245.908,159.495 259.5,159C 260.167,169 260.833,179 261.5,189C 260.553,203.754 260.553,218.92 261.5,234.5 Z"/></g>
<g><path style="opacity:0.458" fill="#d3d3d3" d="M 180.5,218.5 C 180.5,219.167 180.5,219.833 180.5,220.5C 179.503,200.674 179.17,180.674 179.5,160.5C 166.167,160.5 152.833,160.5 139.5,160.5C 139.167,160.5 138.833,160.5 138.5,160.5C 138.866,159.305 139.699,158.639 141,158.5C 154.088,159.453 167.088,159.786 180,159.5C 180.374,160.416 180.874,161.25 181.5,162C 181.6,180.798 181.266,199.631 180.5,218.5 Z"/></g>
<g><path style="opacity:0.016" fill="#d3d3d3" d="M 294.5,204.5 C 295.833,204.5 296.5,205.167 296.5,206.5C 295.5,206.167 294.833,205.5 294.5,204.5 Z"/></g>
<g><path style="opacity:0.008" fill="#e8e8e8" d="M 296.5,206.5 C 297.833,206.5 298.5,207.167 298.5,208.5C 297.5,208.167 296.833,207.5 296.5,206.5 Z"/></g>
<g><path style="opacity:0.369" fill="#cbcbcb" d="M 293.5,202.5 C 289.227,205.434 285.227,208.767 281.5,212.5C 283.893,208.598 286.893,205.098 290.5,202C 291.749,201.26 292.749,201.427 293.5,202.5 Z"/></g>
<g><path style="opacity:0.38" fill="#cdcdcd" d="M 298.5,208.5 C 301.243,210.239 303.243,212.573 304.5,215.5C 301.757,213.761 299.757,211.427 298.5,208.5 Z"/></g>
<g><path style="opacity:0.604" fill="#c4c4c4" d="M 281.5,212.5 C 279.57,216.1 276.903,219.1 273.5,221.5C 275.43,217.9 278.097,214.9 281.5,212.5 Z"/></g>
<g><path style="opacity:0.667" fill="#c0c0c0" d="M 304.5,215.5 C 306.914,216.911 308.581,218.911 309.5,221.5C 307.086,220.089 305.419,218.089 304.5,215.5 Z"/></g>
<g><path style="opacity:0.008" fill="#fefffe" d="M 180.5,218.5 C 193.087,219.48 205.754,219.813 218.5,219.5C 218.5,219.833 218.5,220.167 218.5,220.5C 205.833,220.5 193.167,220.5 180.5,220.5C 180.5,219.833 180.5,219.167 180.5,218.5 Z"/></g>
<g><path style="opacity:0.29" fill="#c7c7c7" d="M 273.5,221.5 C 273.167,222.5 272.5,223.167 271.5,223.5C 271.5,222.167 272.167,221.5 273.5,221.5 Z"/></g>
<g><path style="opacity:0.592" fill="#a1a1a1" d="M 313.5,225.5 C 315.587,226.585 316.92,228.251 317.5,230.5C 315.413,229.415 314.08,227.749 313.5,225.5 Z"/></g>
<g><path style="opacity:0.004" fill="#e0e0e0" d="M 317.5,230.5 C 318.833,230.5 319.5,231.167 319.5,232.5C 318.5,232.167 317.833,231.5 317.5,230.5 Z"/></g>
<g><path style="opacity:0.439" fill="#8c8c8c" d="M 264.5,230.5 C 264.262,232.404 263.262,233.738 261.5,234.5C 261.738,232.596 262.738,231.262 264.5,230.5 Z"/></g>
<g><path style="opacity:0.612" fill="#d1d1d1" d="M 321.5,234.5 C 322.705,236.138 324.038,236.471 325.5,235.5C 325.657,236.873 325.49,238.207 325,239.5C 323.198,238.211 322.031,236.544 321.5,234.5 Z"/></g>
<g><path style="opacity:0.453" fill="#545454" d="M 138.5,160.5 C 138.833,160.5 139.167,160.5 139.5,160.5C 139.172,208.905 139.505,257.239 140.5,305.5C 139.078,305.25 138.078,304.417 137.5,303C 138.485,255.351 138.818,207.851 138.5,160.5 Z"/></g>
<g><path style="opacity:0.464" fill="#d8d8d8" d="M 218.5,261.5 C 218.5,261.833 218.5,262.167 218.5,262.5C 206.167,262.5 193.833,262.5 181.5,262.5C 180.98,267.726 180.646,272.726 180.5,277.5C 180.83,295.341 180.497,313.008 179.5,330.5C 179.5,307.5 179.5,284.5 179.5,261.5C 192.5,261.5 205.5,261.5 218.5,261.5 Z"/></g>
<g><path style="opacity:0.287" fill="#858585" d="M 218.5,261.5 C 218.836,289.015 219.836,316.349 221.5,343.5C 221.585,344.995 220.919,345.995 219.5,346.5C 218.5,318.508 218.167,290.508 218.5,262.5C 218.5,262.167 218.5,261.833 218.5,261.5 Z"/></g>
<g><path style="opacity:0.133" fill="#d1d1d1" d="M 292.5,264.5 C 291.5,265.167 290.5,265.833 289.5,266.5C 289.668,263.949 290.668,263.282 292.5,264.5 Z"/></g>
<g><path style="opacity:0.024" fill="#ececec" d="M 292.5,264.5 C 293.5,264.833 294.167,265.5 294.5,266.5C 293.167,266.5 292.5,265.833 292.5,264.5 Z"/></g>
<g><path style="opacity:0.047" fill="#d7d7d7" d="M 294.5,266.5 C 296.914,267.911 298.581,269.911 299.5,272.5C 297.086,271.089 295.419,269.089 294.5,266.5 Z"/></g>
<g><path style="opacity:0.067" fill="#d2d2d2" d="M 287.5,268.5 C 286.581,271.089 284.914,273.089 282.5,274.5C 283.419,271.911 285.086,269.911 287.5,268.5 Z"/></g>
<g><path style="opacity:0.006" fill="#fefefe" d="M 180.5,277.5 C 181.662,295.329 181.829,313.329 181,331.5C 180.722,332.416 180.222,333.082 179.5,333.5C 179.5,332.5 179.5,331.5 179.5,330.5C 180.497,313.008 180.83,295.341 180.5,277.5 Z"/></g>
<g><path style="opacity:0.369" fill="#acacac" d="M 305.5,279.5 C 308.833,280.833 311.167,283.167 312.5,286.5C 309.833,284.5 307.5,282.167 305.5,279.5 Z"/></g>
<g><path style="opacity:0.004" fill="#f0f0f0" d="M 274.5,283.5 C 274.5,284.833 273.833,285.5 272.5,285.5C 272.833,284.5 273.5,283.833 274.5,283.5 Z"/></g>
<g><path style="opacity:0.098" fill="#f7f7f7" d="M 312.5,286.5 C 313.5,286.833 314.167,287.5 314.5,288.5C 313.167,288.5 312.5,287.833 312.5,286.5 Z"/></g>
<g><path style="opacity:0.012" fill="#dfdfdf" d="M 272.5,285.5 C 271.92,287.749 270.587,289.415 268.5,290.5C 269.08,288.251 270.413,286.585 272.5,285.5 Z"/></g>
<g><path style="opacity:0.02" fill="#eaeaea" d="M 314.5,288.5 C 315.5,288.833 316.167,289.5 316.5,290.5C 315.167,290.5 314.5,289.833 314.5,288.5 Z"/></g>
<g><path style="opacity:0.055" fill="#d6d6d6" d="M 316.5,290.5 C 317.5,290.833 318.167,291.5 318.5,292.5C 317.167,292.5 316.5,291.833 316.5,290.5 Z"/></g>
<g><path style="opacity:0.016" fill="#eeeeee" d="M 266.5,292.5 C 266.5,293.833 265.833,294.5 264.5,294.5C 264.833,293.5 265.5,292.833 266.5,292.5 Z"/></g>
<g><path style="opacity:0.082" fill="#cacaca" d="M 318.5,292.5 C 319.906,292.973 320.573,293.973 320.5,295.5C 319.094,295.027 318.427,294.027 318.5,292.5 Z"/></g>
<g><path style="opacity:0.008" fill="#dfdfdf" d="M 264.5,294.5 C 264.262,296.404 263.262,297.738 261.5,298.5C 261.738,296.596 262.738,295.262 264.5,294.5 Z"/></g>
<g><path style="opacity:0.004" fill="#b8b8b8" d="M 320.5,295.5 C 322.144,295.81 323.144,296.81 323.5,298.5C 321.856,298.19 320.856,297.19 320.5,295.5 Z"/></g>
<g><path style="opacity:0.008" fill="#bebebe" d="M 323.5,298.5 C 324.5,298.833 325.167,299.5 325.5,300.5C 324.167,300.5 323.5,299.833 323.5,298.5 Z"/></g>
<g><path style="opacity:0.004" fill="#cfcfcf" d="M 259.5,300.5 C 259.5,301.833 258.833,302.5 257.5,302.5C 257.833,301.5 258.5,300.833 259.5,300.5 Z"/></g>
<g><path style="opacity:0.396" fill="#c1c1c1" d="M 325.5,301.5 C 327.833,301.833 329.167,303.167 329.5,305.5C 327.833,304.5 326.5,303.167 325.5,301.5 Z"/></g>
<g><path style="opacity:0.012" fill="#e1e1e1" d="M 257.5,302.5 C 257.262,304.404 256.262,305.738 254.5,306.5C 254.738,304.596 255.738,303.262 257.5,302.5 Z"/></g>
<g><path style="opacity:0.388" fill="#c4c4c4" d="M 140.5,305.5 C 142.027,305.427 143.027,306.094 143.5,307.5C 141.973,307.573 140.973,306.906 140.5,305.5 Z"/></g>
<g><path style="opacity:0.004" fill="#f1f1f1" d="M 364.5,305.5 C 364.5,306.833 363.833,307.5 362.5,307.5C 362.833,306.5 363.5,305.833 364.5,305.5 Z"/></g>
<g><path style="opacity:0.482" fill="#a8a8a8" d="M 143.5,307.5 C 145.027,307.427 146.027,308.094 146.5,309.5C 144.973,309.573 143.973,308.906 143.5,307.5 Z"/></g>
<g><path style="opacity:0.008" fill="#dadada" d="M 361.5,307.5 C 361.5,308.833 360.833,309.5 359.5,309.5C 359.833,308.5 360.5,307.833 361.5,307.5 Z"/></g>
<g><path style="opacity:0.012" fill="#f1f1f1" d="M 146.5,309.5 C 147.5,309.833 148.167,310.5 148.5,311.5C 147.167,311.5 146.5,310.833 146.5,309.5 Z"/></g>
<g><path style="opacity:0.024" fill="#f0f0f0" d="M 252.5,308.5 C 252.5,310.5 251.5,311.5 249.5,311.5C 250.167,310.167 251.167,309.167 252.5,308.5 Z"/></g>
<g><path style="opacity:0.031" fill="#ececec" d="M 333.5,309.5 C 334.5,309.833 335.167,310.5 335.5,311.5C 334.167,311.5 333.5,310.833 333.5,309.5 Z"/></g>
<g><path style="opacity:0.031" fill="#dadada" d="M 335.5,311.5 C 337.587,312.585 338.92,314.251 339.5,316.5C 337.413,315.415 336.08,313.749 335.5,311.5 Z"/></g>
<g><path style="opacity:0.643" fill="#a9a9a9" d="M 150.5,312.5 C 152.404,312.738 153.738,313.738 154.5,315.5C 152.596,315.262 151.262,314.262 150.5,312.5 Z"/></g>
<g><path style="opacity:0.012" fill="#d9d9d9" d="M 249.5,311.5 C 249.262,313.404 248.262,314.738 246.5,315.5C 246.738,313.596 247.738,312.262 249.5,311.5 Z"/></g>
<g><path style="opacity:0.698" fill="#7f7f7f" d="M 154.5,315.5 C 156.027,315.427 157.027,316.094 157.5,317.5C 155.973,317.573 154.973,316.906 154.5,315.5 Z"/></g>
<g><path style="opacity:0.008" fill="#ececec" d="M 350.5,315.5 C 350.5,316.833 349.833,317.5 348.5,317.5C 348.833,316.5 349.5,315.833 350.5,315.5 Z"/></g>
<g><path style="opacity:0.486" fill="#757575" d="M 158.5,318.5 C 160.027,318.427 161.027,319.094 161.5,320.5C 159.973,320.573 158.973,319.906 158.5,318.5 Z"/></g>
<g><path style="opacity:0.541" fill="#8b8b8b" d="M 341.5,318.5 C 342.833,318.833 344.167,319.167 345.5,319.5C 343.872,320.853 342.538,320.519 341.5,318.5 Z"/></g>
<g><path style="opacity:0.012" fill="#e1e1e1" d="M 243.5,318.5 C 242.527,321.135 240.86,323.135 238.5,324.5C 239.419,321.911 241.086,319.911 243.5,318.5 Z"/></g>
<g><path style="opacity:0.345" fill="#c3c3c3" d="M 162.5,321.5 C 164.027,321.427 165.027,322.094 165.5,323.5C 163.973,323.573 162.973,322.906 162.5,321.5 Z"/></g>
<g><path style="opacity:0.435" fill="#c9c9c9" d="M 165.5,323.5 C 167.404,323.738 168.738,324.738 169.5,326.5C 167.596,326.262 166.262,325.262 165.5,323.5 Z"/></g>
<g><path style="opacity:0.427" fill="#d9d9d9" d="M 169.5,326.5 C 171.404,326.738 172.738,327.738 173.5,329.5C 171.596,329.262 170.262,328.262 169.5,326.5 Z"/></g>
<g><path style="opacity:0.024" fill="#dedede" d="M 236.5,326.5 C 236.262,328.404 235.262,329.738 233.5,330.5C 233.738,328.596 234.738,327.262 236.5,326.5 Z"/></g>
<g><path style="opacity:0.31" fill="#d5d5d5" d="M 173.5,329.5 C 175.027,329.427 176.027,330.094 176.5,331.5C 174.973,331.573 173.973,330.906 173.5,329.5 Z"/></g>
<g><path style="opacity:0.004" fill="#e0e0e0" d="M 229.5,334.5 C 229.5,335.833 228.833,336.5 227.5,336.5C 227.833,335.5 228.5,334.833 229.5,334.5 Z"/></g>
<g><path style="opacity:0.047" fill="#c9c9c9" d="M 227.5,336.5 C 227.573,338.027 226.906,339.027 225.5,339.5C 225.427,337.973 226.094,336.973 227.5,336.5 Z"/></g>
<g><path style="opacity:0.004" fill="#ebebeb" d="M 223.5,341.5 C 223.5,342.833 222.833,343.5 221.5,343.5C 221.833,342.5 222.5,341.833 223.5,341.5 Z"/></g>
</svg>
