<?xml version="1.0" standalone="no"?>
<!DOCTYPE svg PUBLIC "-//W3C//DTD SVG 20010904//EN"
 "http://www.w3.org/TR/2001/REC-SVG-20010904/DTD/svg10.dtd">
<svg version="1.0" xmlns="http://www.w3.org/2000/svg"
 width="64.000000pt" height="64.000000pt" viewBox="0 0 64.000000 64.000000"
 preserveAspectRatio="xMidYMid meet">

<g transform="translate(0.000000,64.000000) scale(0.100000,-0.100000)"
fill="#000000" stroke="none">
<path d="M183 620 c-10 -11 -28 -20 -41 -20 -27 0 -82 -50 -82 -75 0 -9 -13
-30 -30 -45 -39 -37 -42 -99 -6 -133 18 -17 25 -38 31 -85 4 -34 14 -71 23
-83 19 -23 74 -38 147 -40 l50 -1 -55 -9 c-67 -11 -100 -42 -100 -95 l0 -34
200 0 200 0 0 35 c0 19 -4 35 -10 35 -5 0 -10 -11 -10 -25 l0 -25 -180 0 -180
0 0 24 c0 56 106 90 145 46 23 -26 47 -25 71 1 19 21 62 23 124 4 23 -7 24 -6
10 8 -8 9 -40 21 -70 26 l-55 9 50 1 c73 2 128 17 147 40 9 12 19 49 23 83 6
47 13 68 31 85 36 34 33 96 -6 133 -16 15 -30 36 -30 45 0 25 -55 75 -82 75
-13 0 -31 9 -41 20 -21 24 -44 26 -69 3 -17 -15 -19 -15 -36 0 -10 10 -25 17
-32 17 -7 0 -22 -7 -32 -17 -17 -15 -19 -15 -36 0 -25 23 -48 21 -69 -3z m52
-10 c4 -6 -5 -10 -20 -10 -15 0 -24 4 -20 10 3 6 12 10 20 10 8 0 17 -4 20
-10z m98 3 c-7 -2 -19 -2 -25 0 -7 3 -2 5 12 5 14 0 19 -2 13 -5z m112 -3 c4
-6 -5 -10 -20 -10 -15 0 -24 4 -20 10 3 6 12 10 20 10 8 0 17 -4 20 -10z m85
-40 c31 -17 43 -83 38 -228 -5 -187 8 -177 -248 -177 -255 0 -243 -8 -249 166
-4 133 3 197 23 225 10 13 33 21 73 26 80 9 339 1 363 -12z m-480 -161 c0 -54
-2 -60 -15 -49 -23 19 -18 110 6 110 5 0 9 -28 9 -61z m564 45 c11 -29 6 -81
-9 -94 -13 -11 -15 -5 -15 49 0 58 11 79 24 45z m-264 -333 c0 -21 -22 -33
-45 -25 -8 4 -15 15 -15 25 0 14 7 19 30 19 23 0 30 -5 30 -19z"/>
<path d="M132 543 c-18 -15 -23 -32 -28 -104 -4 -51 -3 -93 3 -104 8 -13 11 8
15 79 3 55 11 102 18 111 17 21 341 22 358 2 17 -20 25 -116 18 -191 -6 -52
-11 -66 -27 -71 -26 -9 -313 -8 -339 0 -11 3 -20 13 -20 21 0 8 -4 14 -10 14
-16 0 -11 -26 8 -43 16 -15 45 -17 194 -17 223 0 213 -7 213 161 0 161 11 153
-208 157 -155 3 -176 1 -195 -15z"/>
<path d="M176 501 c-37 -41 14 -97 60 -66 29 18 31 46 6 68 -24 22 -45 21 -66
-2z m61 -17 c3 -8 -2 -23 -11 -32 -14 -15 -18 -15 -31 -1 -9 9 -13 23 -9 32 8
21 43 22 51 1z"/>
<path d="M397 502 c-24 -26 -21 -49 7 -67 46 -31 97 25 60 66 -22 24 -46 24
-67 1z m57 -19 c4 -9 0 -23 -9 -32 -13 -14 -17 -14 -31 1 -9 9 -14 24 -11 32
8 21 43 20 51 -1z"/>
<path d="M271 405 c-1 -28 18 -45 49 -45 31 0 50 17 49 45 0 19 -1 19 -16 -2
-8 -13 -23 -23 -33 -23 -10 0 -25 10 -33 23 -15 21 -16 21 -16 2z"/>
<path d="M145 390 c3 -5 15 -10 25 -10 10 0 22 5 25 10 4 6 -7 10 -25 10 -18
0 -29 -4 -25 -10z"/>
<path d="M445 390 c3 -5 15 -10 25 -10 10 0 22 5 25 10 4 6 -7 10 -25 10 -18
0 -29 -4 -25 -10z"/>
<path d="M150 360 c0 -5 11 -10 25 -10 14 0 25 5 25 10 0 6 -11 10 -25 10 -14
0 -25 -4 -25 -10z"/>
<path d="M440 360 c0 -5 11 -10 25 -10 14 0 25 5 25 10 0 6 -11 10 -25 10 -14
0 -25 -4 -25 -10z"/>
<path d="M181 72 c-16 -30 -14 -37 14 -37 20 0 24 4 19 20 -10 33 -21 38 -33
17z"/>
<path d="M230 60 c0 -16 5 -30 10 -30 6 0 10 14 10 30 0 17 -4 30 -10 30 -5 0
-10 -13 -10 -30z"/>
</g>
</svg>
